<svg width="1434" height="595" xmlns="http://www.w3.org/2000/svg" xmlns:xlink="http://www.w3.org/1999/xlink" xml:space="preserve" overflow="hidden"><defs><clipPath id="clip0"><rect x="1293" y="1131" width="1434" height="595"/></clipPath></defs><g clip-path="url(#clip0)" transform="translate(-1293 -1131)"><path d="M1462.3 1359.01 1605.6 1359.01 1605.6 1726 1462.3 1726ZM2598.31 1131.29C2613.23 1132.18 2627.76 1135.08 2640.83 1140.16 2698.11 1164.87 2727.83 1213.13 2726.9 1278.8 2727.24 1427.86 2726.56 1576.93 2726.9 1726L2583.6 1726C2583.1 1586.83 2582.61 1447.66 2582.11 1308.49 2582.83 1293.24 2576.4 1294.37 2569.97 1301.65L2262.43 1726 2085.72 1726 2483 1173.42C2505.35 1144.12 2553.55 1128.64 2598.31 1131.29ZM1293 1131 2075.4 1131 2075.4 1131.28 2088.69 1131.95C2181.64 1141.41 2254.18 1220.04 2254.18 1315.63 2254.18 1417.6 2171.65 1500.26 2069.84 1500.26L2008.95 1500.26 2008.95 1500.26 1959.34 1500.26C1935.45 1500.26 1916.08 1519.66 1916.08 1543.59L1916.08 1710.98 1916.08 1726 1772.78 1726 1772.78 1710.98 1772.78 1710.98 1772.78 1538.03C1772.78 1427.47 1845.14 1356.74 1953.78 1356.74L2008.95 1356.74 2030.18 1356.74 2069.84 1356.74C2092.51 1356.74 2110.88 1338.33 2110.88 1315.63 2110.88 1292.93 2092.51 1274.53 2069.84 1274.53L2008.95 1274.53 2008.95 1274.53 1293 1274.53Z" fill="#FF2735" fill-rule="evenodd"/></g></svg>