<?xml version="1.0" encoding="UTF-8"?>
<svg xmlns="http://www.w3.org/2000/svg" width="622" height="690" viewBox="0 0 622 690" fill="none">
  <g clip-path="url(#clip0_2203_3029)">
    <path fill-rule="evenodd" clip-rule="evenodd" d="M56.5653 90.0017C55.051 91.7803 45.3008 104.786 34.8953 118.971L15.9819 144.794L29.1101 165.214C36.3124 176.451 49.3193 196.649 57.9921 210.104C64.2092 218.857 69.4605 228.281 73.6586 238.199C73.3771 254.099 71.8629 269.952 69.1353 285.606C68.2617 286.761 52.3235 296.548 33.7644 307.35C21.8835 313.604 10.585 320.936 -0.00488281 329.259C-0.00488281 331.211 5.17845 347.958 26.0088 413.33L30.3865 427.162L70.8389 442.024C93.0864 450.197 114.732 458.167 118.979 459.737C125.22 462.072 128.535 465.295 137.087 477.344C142.847 485.454 150.812 496.106 154.801 501.012L162.047 509.914L162.518 557.11L162.989 604.305L202.373 631.172L241.758 658.039L253.134 649.75C259.409 645.202 273.363 634.961 284.137 627.006C290.713 621.593 297.886 616.972 305.511 613.246C306.491 613.628 316.295 616.175 327.302 618.891L347.312 623.83L354.811 633.946C376.262 662.949 398.117 689.488 400.956 689.995C420.636 686.187 439.991 680.803 458.837 673.887C461.254 660.977 462.292 647.841 461.933 634.705L463.078 597.195L475.129 585.746C489.257 572.334 485.826 572.745 518.358 580.502C532.563 583.885 544.299 586.529 544.439 586.359C544.58 586.19 548.817 573.107 553.83 557.259L562.979 528.445L548.011 502.887C539.785 488.837 532.126 475.493 530.986 473.26C527.846 467.079 526.419 468.21 522.968 479.601C489.524 589.897 354.665 584.677 254.828 469.181C208.954 416.119 180.975 327.495 190.997 266.994L193.419 252.398L178.539 250.334C170.676 249.513 163.008 247.343 155.859 243.911L148.036 239.46L145.759 249.701C142.173 278.734 142.857 308.143 147.783 336.967C183.178 504.095 339.785 626.556 460.089 581.178C475.168 575.49 472.664 579.158 456.201 586.877C355.548 634.072 205.285 539.029 147.948 391.857C126.322 336.315 120.037 265.409 133.539 229.296C134.805 225.903 133.874 223.206 128.778 215.502C109.476 186.349 105.462 168.646 111.922 141.242C113.927 132.765 116.062 122.949 116.683 119.425L117.814 113.012L100.308 105.158C90.6792 100.837 77.7694 94.9604 71.6008 92.0847C58.3319 85.9129 59.9529 86.1352 56.5556 90.0355" fill="#339044"></path>
    <path fill-rule="evenodd" clip-rule="evenodd" d="M271.387 1.7108C252.615 5.12296 215.671 23.1455 178.111 47.2143C154.709 62.221 145.279 79.4606 132.714 130.208C124.443 163.629 124.541 169.53 133.684 188.089L140.92 202.801H184.518L186.784 196.441C188.153 192.608 190.798 189.384 194.258 187.33L199.51 184.58V156.785C199.51 141.488 200 126.511 200.597 123.408C201.597 118.343 201.121 117.613 195.292 115.134C191.613 113.858 188.405 111.465 186.09 108.29C183.775 105.11 182.47 101.292 182.339 97.3382C182.208 93.3847 183.266 89.4844 185.362 86.1544C187.464 82.8244 190.507 80.2242 194.093 78.7018C196.146 77.6192 198.393 76.9619 200.699 76.7637C203.004 76.5656 205.329 76.8314 207.532 77.5467C209.736 78.262 211.784 79.4123 213.55 80.9299C215.317 82.4474 216.778 84.3082 217.836 86.4009L221.563 92.8289L288.801 91.7608C353.631 90.7265 356.194 90.5574 359.698 86.9422C368.958 77.5225 382.377 85.2748 380.528 98.9911C378.99 110.46 412.254 150.265 423.417 150.265C426.494 150.328 429.493 151.256 432.09 152.938C435.725 155.731 518.12 157.196 520.755 154.504C521.4 153.847 519.881 149.719 517.358 145.36C512.936 136.554 509.058 127.468 505.758 118.164C500.638 101.108 490.907 85.8596 477.682 74.1539C470.955 67.3731 465.359 59.529 461.103 50.9212C454.609 36.6733 449.945 34.2761 428.717 34.2761C419.423 34.1649 410.153 33.1887 401.034 31.3569C386.279 27.9738 382.091 29.5155 375.573 40.7524C370.322 49.8193 364.289 49.249 355.073 38.8095C348.361 31.2071 347.264 30.6513 338.96 30.6513C334.398 31.3134 329.763 30.1148 326.06 27.3213C322.357 24.5278 319.886 20.3617 319.187 15.7267C315.853 2.26177 297.707 -3.06429 271.426 1.7108M228.44 99.0394C215.778 100.127 218.525 104.24 243.277 121.238C255.599 129.705 270.232 139.937 275.794 143.982C327.87 181.83 345.526 192.666 351.53 190.457C357.519 187.842 364.275 187.688 370.375 190.032C372.87 191.395 377.641 189.22 392.521 179.926L411.488 168.085V160.313C411.488 150.778 376.563 110.561 366.279 108.266C362.828 107.265 359.766 105.192 357.528 102.336L354.141 97.6137L295.086 98.0051C262.612 98.2275 232.629 98.7011 228.464 99.0539M209.42 114.587C206.401 116.83 206.27 119.324 207.493 150.855L208.809 184.696L213.953 188.427C216.739 190.409 218.889 193.173 220.141 196.387C220.486 197.605 221.107 198.722 221.961 199.64C222.815 200.563 223.868 201.264 225.043 201.684C231.362 203.405 342.323 202.941 341.265 201.196C340.731 200.307 320.042 185.078 295.29 167.355C270.538 149.632 243.141 129.952 234.419 123.64C217.884 111.726 214.807 110.61 209.42 114.621M459.302 162.87C438.982 163.841 438.438 163.977 434.463 169.105L430.396 174.378L436.269 209.881C441.826 243.515 443.874 249.952 449.067 249.952C455.774 243.331 462.054 236.28 467.878 228.837C477.507 217.261 493.654 197.953 503.7 186.011C510.262 178.65 516.363 170.874 521.959 162.725C521.959 161.087 495.27 161.149 459.317 162.865M521.672 176.088C514.208 185.242 506.967 193.898 503.293 198.103C502.312 199.21 497.105 205.416 491.722 211.897C486.34 218.378 481.501 224.081 480.958 224.579C472.29 233.742 464.554 243.776 457.871 254.525C457.871 259.28 460.258 258.618 551.389 228.89C565.114 224.439 582.741 218.702 590.584 216.189C614.768 208.441 614.215 208.833 618.137 198.031C627.601 172.294 619.204 162.981 598.296 176.016C589.832 181.791 579.781 184.677 569.594 184.261C559.412 183.841 549.622 180.143 541.639 173.691C530.53 164.789 530.971 164.707 521.716 176.079M400.791 182.212C394.428 186.707 387.163 191.685 384.658 193.265C380.548 195.865 380.106 197.272 380.028 208.093L379.941 220.045L401.184 236.352C412.871 245.327 423.538 253.461 424.888 254.418C426.64 255.675 428.659 254.906 431.959 251.745C437.263 246.671 437.409 248.952 429.192 205.807C422.233 169.298 420.772 168.061 400.771 182.207M163.401 209.683C145.23 210.287 145.065 210.572 156.524 221.481C169.487 233.815 191.036 236.342 212.783 228.059L223.286 224.062L219.146 220.649C218.146 219.601 216.88 218.852 215.492 218.494C214.099 218.136 212.638 218.175 211.269 218.61C207.896 219.939 204.237 220.321 200.674 219.717C197.107 219.113 193.768 217.537 191.007 215.164C184.969 209.466 182.814 209.036 163.42 209.688M280.099 209.649C220.19 210.133 215.419 210.737 226.358 216.498C231.357 219.171 232.58 219.171 240.03 216.541C251.925 212.419 254.517 212.834 272.722 221.882C279.521 225.579 286.782 228.324 294.304 230.04C297.886 229.929 301.424 230.9 304.467 232.824C307.515 234.748 309.932 237.546 311.422 240.861C314.048 248.401 314.441 248.208 330.005 232.268C353.583 208.146 355.641 209.069 280.118 209.678M563.799 231.297C544.201 237.763 514.145 247.584 496.993 253.113C462.598 264.21 462.112 264.486 460.496 273.552C459.21 280.758 456.813 278.521 499.085 309.54C528.923 331.438 534.218 331.482 529.719 309.796C525.603 290.149 530.539 282.59 559.208 264.674C577.354 253.331 605.693 225.927 605.693 219.721C605.693 218.011 595.836 220.736 563.828 231.297M328.147 243.186C304.356 267.463 304.516 266.863 318.44 287.887C324.492 296.795 329.345 306.49 332.864 316.712C336.849 329.577 341.275 332.84 346.939 327.079C347.812 326.189 352.243 292.43 355.291 263.906C356.859 249.16 358.616 234.699 359.183 231.775C360.164 226.778 355.815 222.771 349.409 222.771C341.949 229.161 334.849 235.97 328.151 243.181L328.147 243.186ZM369.045 225.802C367.255 231.601 366.031 237.565 365.405 243.611C363.052 261.252 354.743 316.016 353.379 322.864C351.384 332.883 359.858 333.55 370.885 324.174C437.55 267.893 436.38 271.411 398.141 241.944C371.666 221.544 371.297 221.345 369.011 225.782M396.277 310.545C364.77 337.687 360.673 343.83 368.41 351.882C397.107 363.453 426.528 373.051 456.487 380.62C452.537 349.045 446.815 317.727 439.35 286.814C433.303 280.672 426.703 284.296 396.282 310.545H396.277ZM449.44 287.167C447.688 291.797 451.246 312.575 464.005 372.529C466.631 384.916 476.6 380.243 516.659 347.808C526.792 339.596 515.392 327.61 460.137 288.366C453.503 283.649 450.877 283.364 449.44 287.162V287.167ZM504.919 365.163C494.154 373.713 484.069 381.664 482.511 382.833C480.181 385.965 478.798 389.716 478.526 393.635C477.099 404.374 480.443 406.742 487.282 399.826C493.052 395.143 499.294 391.098 505.909 387.758C511.83 385.414 517.178 381.794 521.585 377.145C525.996 372.495 529.36 366.928 531.447 360.823C537.712 344.333 529.476 345.686 504.943 365.159M356.582 363.298C354.704 364.748 352.52 365.729 350.2 366.159C347.88 366.589 345.497 366.459 343.235 365.772C334.16 363.1 333.607 363.501 327.656 375.748C320.915 389.677 321.415 394.636 330.826 407.173C339.804 419.565 346.444 433.542 350.414 448.394C353.253 457.93 356.577 467.306 360.373 476.489C363.915 484.956 368.643 497.111 370.875 503.496C378.859 526.361 397.709 533.538 412.963 519.522C416.263 515.719 420.83 513.297 425.785 512.727C437.346 512.727 462.544 489.122 471.474 469.867C474.037 463.29 478.745 457.809 484.811 454.348C494.727 448.114 496.949 444.774 496.949 435.958C496.949 428.032 472.751 403.988 464.748 403.983C461.889 403.427 459.215 402.132 456.987 400.227C454.755 398.323 453.042 395.868 452.008 393.099C449.115 390.136 445.485 388.029 441.505 387.009C436.254 385.158 416.918 378.015 398.549 371.152C380.179 364.284 364.954 358.774 364.702 358.909L356.597 363.293" fill="black"></path>
    <path d="M436.239 34.0636C466.922 43.2271 478.958 39.8488 483.836 34.0636C485.971 31.5262 486.845 28.3992 488.15 28.6167C492.446 29.3223 493.081 64.8068 485.204 66.885C478.72 68.5959 469.179 46.9341 463.651 49.0944C461.428 49.9644 462.103 53.797 459.962 61.443C458.424 66.9479 453.886 79.9247 449.183 80.5482C445.262 81.0653 439.025 73.2792 428.629 41.3567" fill="black"></path>
    <path d="M580.727 348.915C580.363 349.485 579.995 350.055 579.631 350.626C565.226 373.022 556.121 377.111 550.336 376.251C548.409 375.966 546.235 375.033 544.366 376.251C539.809 379.223 546.191 389.058 541.979 400.02C539.11 407.482 534.791 406.472 532.034 415.075C531.326 417.288 529.331 423.828 532.034 430.923C532.849 433.068 534.621 437.713 539.193 440.033C544.633 442.793 550.661 440.54 551.923 440.033C563.542 435.345 561.338 421.063 574.2 399.227C575.457 397.091 578.558 392.002 580.723 384.501C581.334 382.384 581.785 379.373 582.795 373.477C583.562 369.011 584.149 365.333 584.542 362.853" fill="black"></path>
  </g>
  <defs>
    <clipPath id="clip0_2203_3029">
      <rect width="622" height="690" fill="black"></rect>
    </clipPath>
  </defs>
</svg>
