<?xml version="1.0" encoding="UTF-8"?>
<svg xmlns="http://www.w3.org/2000/svg" xmlns:xlink="http://www.w3.org/1999/xlink" id="Layer_1" version="1.1" viewBox="0 0 1920 1080">
  <defs>
    <style>
      .st0 {
        fill: url(#linear-gradient);
      }

      .st1, .st2 {
        fill-rule: evenodd;
      }

      .st3 {
        clip-rule: evenodd;
        fill: none;
      }

      .st2 {
        fill: #348f41;
      }

      .st4 {
        clip-path: url(#clippath);
      }
    </style>
    <clipPath id="clippath">
      <path class="st3" d="M615.3,611.5c-9.8,45-39.5,77.8-85,84.5-82.5,12.2-183.9-64.6-219.1-172.6-13.5-41.6-14.5-79.5-5.6-110-2.9.3-5.9.5-9,.5-14.4,0-26.5-4-35.3-11.5-8.8,34.6-7.1,76.8,7.9,122.8,40.9,125.5,158.8,214.8,254.7,200.6,26-3.9,47.6-15.1,64.2-31.7-17.6,20.1-41.5,33.7-71,38-98.6,14.6-219.9-77.2-261.9-206.3-16.8-51.7-17.4-98.5-5.4-135.8-7.3-9-13.4-19.2-19.4-32.1-8.7-18.7-5.6-30.9-2.6-42.6.8-3,1.6-6.2,2.3-9.7,1.3-6.7,2.8-12.8,4.4-18.6l-56.5-24.6-19.9,26.7-20.7,27.7,55.3,84.3c-2.6,14.1-3.9,29-3.5,44.7l-67.5,38.9,15,45.9,15,45.9,90.7,32.4c9.8,15.3,20.6,29.8,32.2,43.3l.3,86.5,38,25.3,36.5,24.4,57.8-42c13.3,4.6,26.6,8,39.8,9.8l49.7,63.3,29.4-8.3,28-7.9,2.2-71.5c8.3-6.2,15.7-13.4,22.3-21.3l53.9,12.6,8.7-27.3,8.5-26.5-34.1-57.6Z"></path>
    </clipPath>
    <linearGradient id="linear-gradient" x1="207.8" y1="244.5" x2="545.6" y2="808.2" gradientUnits="userSpaceOnUse">
      <stop offset="0" stop-color="#5f9368"></stop>
      <stop offset=".3" stop-color="#4d8157"></stop>
      <stop offset=".6" stop-color="#42754d"></stop>
      <stop offset="1" stop-color="#3f724a"></stop>
    </linearGradient>
  </defs>
  <g>
    <path class="st2" d="M176.6,262.5c-1.4,1.7-10.5,13.8-20.1,27l-17.6,24.1,12.2,19c6.7,10.5,18.8,29.3,26.8,41.9,5.8,8.2,10.7,16.9,14.5,26.2-.3,14.8-1.7,29.6-4.2,44.2-.8,1.1-15.6,10.2-32.8,20.3-11,5.8-21.5,12.7-31.4,20.4,0,1.8,4.8,17.4,24.2,78.4l4.1,12.9,37.6,13.9c20.7,7.6,40.8,15.1,44.7,16.5,5.8,2.2,8.9,5.2,16.8,16.4,5.3,7.6,12.7,17.5,16.4,22.1l6.7,8.3.4,44,.4,44,36.6,25.1,36.6,25.1,10.6-7.7c5.8-4.2,18.8-13.8,28.8-21.2,6.1-5,12.8-9.4,19.8-12.8.9.4,10,2.7,20.2,5.3l18.6,4.6,7,9.4c19.9,27,40.2,51.8,42.8,52.3,18.3-3.6,36.2-8.6,53.7-15,2.2-12,3.2-24.3,2.9-36.5l1.1-35,11.2-10.7c13.1-12.5,9.9-12.1,40.1-4.9,13.2,3.2,24.1,5.6,24.2,5.5.1-.2,4.1-12.4,8.7-27.1l8.5-26.9-13.9-23.8c-7.6-13.1-14.8-25.5-15.8-27.6-2.9-5.8-4.2-4.7-7.4,5.9-31.1,102.8-156.3,98-249-9.7-42.6-49.5-68.6-132.1-59.3-188.5l2.3-13.6-13.8-1.9c-7.3-.8-14.4-2.8-21.1-6l-7.3-4.2-2.1,9.5c-3.3,27.1-2.7,54.5,1.9,81.4,32.9,155.8,178.3,270,290,227.7,14-5.3,11.7-1.9-3.6,5.3-93.5,44-233-44.6-286.2-181.8-20.1-51.8-25.9-117.9-13.4-151.6,1.2-3.2.3-5.7-4.4-12.9-17.9-27.2-21.7-43.7-15.7-69.2,1.9-7.9,3.8-17.1,4.4-20.3l1-6-16.3-7.3c-8.9-4-20.9-9.5-26.7-12.2-12.3-5.8-10.8-5.5-14-1.9"></path>
    <g>
      <path class="st1" d="M376.1,180.2c-17.4,3.2-51.7,20-86.6,42.4-21.7,14-30.5,30.1-42.2,77.4-7.7,31.2-7.6,36.7.9,54l6.7,13.7h40.5l2.1-5.9c1.3-3.6,3.7-6.6,6.9-8.5l4.9-2.6v-25.9c0-14.3.5-28.2,1-31.1.9-4.7.5-5.4-4.9-7.7-3.4-1.2-6.4-3.4-8.5-6.4-2.1-3-3.4-6.5-3.5-10.2-.1-3.7.9-7.3,2.8-10.4,1.9-3.1,4.8-5.5,8.1-7,1.9-1,4-1.6,6.1-1.8,2.1-.2,4.3,0,6.3.7,2,.7,3.9,1.7,5.6,3.2,1.6,1.4,3,3.1,4,5.1l3.5,6,62.4-1c60.2-1,62.6-1.1,65.8-4.5,8.6-8.8,21.1-1.6,19.3,11.2-1.4,10.7,29.5,47.8,39.8,47.8,2.9,0,5.6.9,8.1,2.5,3.4,2.6,79.9,4,82.3,1.5.6-.6-.8-4.5-3.2-8.5-4.1-8.2-7.7-16.7-10.8-25.4-4.8-15.9-13.8-30.1-26.1-41-6.2-6.3-11.4-13.6-15.4-21.7-6-13.3-10.4-15.5-30.1-15.5-8.6-.1-17.2-1-25.7-2.7-13.7-3.2-17.6-1.7-23.6,8.8-4.9,8.5-10.5,7.9-19-1.8-6.2-7.1-7.2-7.6-15-7.6-4.2.6-8.5-.5-12-3.1-3.4-2.6-5.7-6.5-6.4-10.8-3.1-12.6-19.9-17.5-44.3-13.1M336.2,270.9c-11.8,1-9.2,4.8,13.8,20.7,11.4,7.9,25,17.4,30.2,21.2,48.4,35.3,64.7,45.4,70.3,43.3,5.6-2.4,11.8-2.6,17.5-.4,2.3,1.3,6.7-.8,20.6-9.4l17.6-11v-7.2c0-8.9-32.4-46.4-42-48.5-3.2-.9-6-2.9-8.1-5.5l-3.1-4.4-54.8.4c-30.2.2-58,.6-61.9,1M318.5,285.4c-2.8,2.1-2.9,4.4-1.8,33.8l1.2,31.6,4.8,3.5c2.6,1.8,4.6,4.4,5.7,7.4.3,1.1.9,2.2,1.7,3,.8.9,1.8,1.5,2.9,1.9,5.9,1.6,108.9,1.2,107.9-.5-.5-.8-19.7-15-42.7-31.6-23-16.5-48.4-34.9-56.5-40.8-15.4-11.1-18.2-12.1-23.2-8.4M550.6,330.5c-18.9.9-19.4,1-23.1,5.8l-3.8,4.9,5.5,33.1c5.2,31.4,7.1,37.4,11.9,37.4,6.2-6.2,12.1-12.8,17.5-19.7,8.9-10.8,23.9-28.8,33.3-39.9,6.1-6.9,11.8-14.1,17-21.7,0-1.5-24.8-1.5-58.2.1M608.5,342.8c-6.9,8.5-13.7,16.6-17.1,20.5-.9,1-5.7,6.8-10.7,12.9-5,6-9.5,11.4-10,11.8-8,8.5-15.2,17.9-21.4,27.9,0,4.4,2.2,3.8,86.8-23.9,12.7-4.2,29.1-9.5,36.4-11.8,22.5-7.2,21.9-6.9,25.6-16.9,8.8-24,1-32.7-18.4-20.5-7.9,5.4-17.2,8.1-26.6,7.7-9.5-.4-18.5-3.8-26-9.9-10.3-8.3-9.9-8.4-18.5,2.2M496.2,348.5c-5.9,4.2-12.7,8.8-15,10.3-3.8,2.4-4.2,3.7-4.3,13.8v11.1c0,0,19.6,15.2,19.6,15.2,10.8,8.4,20.8,16,22,16.8,1.6,1.2,3.5.5,6.6-2.5,4.9-4.7,5.1-2.6-2.6-42.8-6.5-34-7.8-35.2-26.4-22M275.8,374.1c-16.9.6-17,.8-6.4,11,12,11.5,32,13.9,52.2,6.1l9.8-3.7-3.8-3.2c-.9-1-2.1-1.7-3.4-2-1.3-.3-2.6-.3-3.9.1-3.1,1.2-6.5,1.6-9.8,1-3.3-.6-6.4-2-9-4.2-5.6-5.3-7.6-5.7-25.6-5.1M384.2,374.1c-55.6.4-60.1,1-49.9,6.4,4.6,2.5,5.8,2.5,12.7,0,11-3.8,13.5-3.5,30.4,5,6.3,3.4,13.1,6,20,7.6,3.3-.1,6.6.8,9.4,2.6,2.8,1.8,5.1,4.4,6.5,7.5,2.4,7,2.8,6.8,17.3-8,21.9-22.5,23.8-21.6-46.3-21.1M647.6,394.3c-18.2,6-46.1,15.2-62,20.3-31.9,10.3-32.4,10.6-33.9,19.1-1.2,6.7-3.4,4.6,35.8,33.6,27.7,20.4,32.6,20.5,28.4.2-3.8-18.3.8-25.4,27.4-42.1,16.8-10.6,43.2-36.1,43.2-41.9s-9.2.9-38.9,10.8M428.8,405.4c-22.1,22.6-21.9,22.1-9,41.7,5.6,8.3,10.1,17.3,13.4,26.9,3.7,12,7.8,15,13.1,9.7.8-.8,4.9-32.3,7.8-58.9,1.5-13.7,3.1-27.2,3.6-30,.9-4.7-3.1-8.4-9.1-8.4-6.9,6-13.5,12.3-19.7,19ZM466.8,389.1c-1.7,5.4-2.8,11-3.4,16.6-2.2,16.4-9.9,67.5-11.2,73.9-1.9,9.3,6,10,16.3,1.2,61.9-52.5,60.8-49.2,25.3-76.7-24.6-19-24.9-19.2-27-15.1M492,468.2c-29.3,25.3-33.1,31-25.9,38.5,26.6,10.8,54,19.7,81.8,26.8-3.7-29.4-9-58.6-15.9-87.5-5.6-5.7-11.7-2.4-40,22.1ZM541.4,446.4c-1.6,4.3,1.7,23.7,13.5,79.6,2.4,11.5,11.7,7.2,48.9-23,9.4-7.7-1.2-18.8-52.5-55.4-6.2-4.4-8.6-4.7-9.9-1.1ZM592.9,519.1c-10,8-19.4,15.4-20.8,16.5-2.2,2.9-3.4,6.4-3.7,10.1-1.3,10,1.8,12.2,8.1,5.8,5.4-4.4,11.2-8.1,17.3-11.3,5.5-2.2,10.5-5.6,14.6-9.9,4.1-4.3,7.2-9.5,9.2-15.2,5.8-15.4-1.8-14.1-24.6,4M455.2,517.3c-1.7,1.4-3.8,2.3-5.9,2.7-2.2.4-4.4.3-6.5-.4-8.4-2.5-8.9-2.1-14.5,9.3-6.3,13-5.8,17.6,2.9,29.3,8.3,11.6,14.5,24.6,18.2,38.4,2.6,8.9,5.7,17.6,9.2,26.2,3.3,7.9,7.7,19.2,9.8,25.2,7.4,21.3,24.9,28,39.1,14.9,3.1-3.5,7.3-5.8,11.9-6.3,10.7,0,34.1-22,42.4-40,2.4-6.1,6.8-11.2,12.4-14.5,9.2-5.8,11.3-8.9,11.3-17.1s-22.5-29.8-29.9-29.8c-2.7-.5-5.1-1.7-7.2-3.5-2.1-1.8-3.7-4.1-4.6-6.6-2.7-2.8-6.1-4.7-9.8-5.7-4.9-1.7-22.8-8.4-39.9-14.8-17.1-6.4-31.2-11.5-31.4-11.4l-7.5,4.1"></path>
      <path d="M529.2,210.4h0c28.5,8.5,39.7,5.4,44.2,0,2-2.4,2.8-5.3,4-5.1,4,.7,4.6,33.7-2.7,35.7-6,1.6-14.9-18.6-20-16.6-2.1.8-1.4,4.4-3.4,11.5-1.4,5.1-5.6,17.2-10,17.8-3.6.5-9.4-6.8-19.1-36.5"></path>
    </g>
    <path d="M663.3,503.9c-.3.5-.7,1.1-1,1.6-13.4,20.9-21.8,24.7-27.2,23.9-1.8-.3-3.8-1.1-5.5,0-4.2,2.8,1.7,11.9-2.2,22.2-2.7,7-6.7,6-9.2,14-.7,2.1-2.5,8.2,0,14.8.8,2,2.4,6.3,6.6,8.5,5.1,2.6,10.6.5,11.8,0,10.8-4.4,8.7-17.7,20.7-38,1.2-2,4-6.7,6.1-13.7.6-2,1-4.8,1.9-10.3.7-4.2,1.3-7.6,1.6-9.9"></path>
    <g class="st4">
      <rect class="st0" x="121.5" y="262.4" width="527.9" height="557.1"></rect>
    </g>
  </g>
  <g>
    <path d="M760.3,341.1v-69.9h24.2v69.9h-24.2Z"></path>
    <path d="M790.8,341.1v-69.9h24.2v69.9h-24.2Z"></path>
    <path d="M821.3,341.1v-69.9h24.2v69.9h-24.2Z"></path>
    <path d="M921.2,341.1h-47v-69.9h24.2v50.2h22.8v19.7Z"></path>
    <path d="M948.2,271.2v45.8c0,2,.5,3.4,1.5,4.3,1,.8,2.7,1.3,5.1,1.3s4-.4,5-1.3c1-.8,1.5-2.3,1.5-4.3v-45.8h24.2v44.5c0,9.9-2.5,16.8-7.4,20.8-4.9,4-12.7,6-23.3,6s-18.4-1.9-23.3-5.8c-4.9-3.9-7.4-10.8-7.4-20.6v-44.9h24.2Z"></path>
    <path d="M986,341.1l15.5-69.9h36.6l15.8,69.9h-24.4l-2-8h-16l-1.7,8h-23.8ZM1018.6,290.2l-4,24.4h10.3l-3.8-24.4h-2.6Z"></path>
    <path d="M1056.4,341.1v-69.9h23.8l16.1,26.5h1.5v-26.5h24.2v69.9h-23.9l-15.9-28.5h-1.6v28.5h-24.2Z"></path>
    <path d="M1158.8,341.1h-30.6v-69.9h29.5c12,0,20.7,2.7,26,8.1,5.3,5.4,7.9,14.1,7.9,26s-2.5,20.9-7.6,26.8c-5.1,6-13.5,8.9-25.3,8.9ZM1167.3,306.6c0-6.3-.6-10.4-1.9-12.5-1.3-2.1-4.2-3.1-8.6-3.1h-4.3v30.5h4.3c3.6,0,6.3-.9,8-2.7,1.7-1.8,2.5-5.8,2.5-12.1Z"></path>
    <path d="M1190.7,341.1l15.5-69.9h36.6l15.8,69.9h-24.4l-2-8h-16l-1.7,8h-23.8ZM1223.3,290.2l-4,24.4h10.3l-3.8-24.4h-2.6Z"></path>
    <path d="M1283.6,341.1v-69.9h50.4v19.7h-26.2v11.3h19.9v19.7h-19.9v19.2h-24.2Z"></path>
    <path d="M1337.9,341.1v-69.9h24.2v69.9h-24.2Z"></path>
    <path d="M1368.4,341.1v-69.9h23.8l16.1,26.5h1.5v-26.5h24.2v69.9h-23.9l-15.9-28.5h-1.6v28.5h-24.2Z"></path>
    <path d="M1436.6,341.1l15.5-69.9h36.6l15.8,69.9h-24.4l-2-8h-16l-1.7,8h-23.8ZM1469.2,290.2l-4,24.4h10.3l-3.8-24.4h-2.6Z"></path>
    <path d="M1507,341.1v-69.9h23.8l16.1,26.5h1.5v-26.5h24.2v69.9h-23.9l-15.9-28.5h-1.6v28.5h-24.2Z"></path>
    <path d="M1629.8,339.8c-7.4,1.8-14.9,2.7-22.7,2.7s-13.7-1.1-17.9-3.3c-4.2-2.2-7.2-5.9-9-11-1.8-5.1-2.8-12.6-2.8-22.2,0-13.8,2.1-23.3,6.4-28.4s12.4-7.7,24.5-7.7,10.9.7,17.7,2.1l3.7.7-.6,18.7c-5.7-.7-11-1-15.8-1s-8,.9-9.3,2.8c-1.4,1.8-2.1,5.7-2.1,11.4s.3,9.8,1,12c.7,2.2,1.7,3.7,3.2,4.4,1.5.7,3.8,1.1,7.1,1.1l16.3-.6.3,18.4Z"></path>
    <path d="M1634.4,341.1v-69.9h24.2v69.9h-24.2Z"></path>
    <path d="M1664.9,341.1v-69.9h23.8l16.1,26.5h1.5v-26.5h24.2v69.9h-23.9l-15.9-28.5h-1.6v28.5h-24.2Z"></path>
    <path d="M1795.4,300v39c-12.6,2-21.9,3-28,3s-11.2-.7-15.5-2-7.6-3.6-10.1-6.7c-2.4-3.1-4.1-6.8-5.1-11.1-.9-4.2-1.4-9.6-1.4-16.2,0-13.4,2.5-22.8,7.5-28.2,5-5.4,13.5-8,25.4-8s7.6.3,12,.9c4.5.6,8,1.2,10.6,1.7l4,.9v18.3c-10-.9-17.1-1.4-21.4-1.4s-7,.2-8.2.6c-1.3.4-2.3.8-3.1,1.4-.8.5-1.3,1.5-1.7,3.1-.5,2.2-.7,6-.7,11.4s.6,9.4,1.9,11.8c1.3,2.5,3.8,3.7,7.6,3.7h3.5v-5.3h-3.1v-16.9c-.1,0,25.7,0,25.7,0Z"></path>
  </g>
  <g>
    <path d="M815.1,384.4c-9.7-1-16.8-1.5-21.2-1.5s-7,.1-7.7.4c-.7.2-1.1.7-1.1,1.5s.4,1.3,1.2,1.7c.8.4,3.4,1.1,7.8,2,4.4.9,7.9,1.9,10.7,2.8,2.8.9,5.3,2.2,7.5,3.9,2.2,1.7,3.7,3.7,4.4,6.1.7,2.4,1.1,5.6,1.1,9.7,0,8.4-2.3,14.4-6.8,17.9-4.5,3.6-11.4,5.4-20.5,5.4s-9-.3-13.9-.9c-4.8-.6-8.6-1.2-11.2-1.8l-4-.9,1-17.9c10.5,1.5,19.2,2.2,25.9,2.2s5.4-.8,5.4-2.3-.4-1.2-1.2-1.5c-.8-.3-3.1-.7-6.7-1.3-9.6-1.5-16.2-3.8-19.7-6.9-3.5-3.1-5.2-8.3-5.2-15.5s2.2-15.4,6.7-18.7c4.5-3.4,11.4-5.1,20.6-5.1s14.2.6,23,1.9l4.3.7-.6,18.2Z"></path>
    <path d="M845.7,364.8v44.5c0,2,.5,3.3,1.5,4.2,1,.8,2.7,1.2,5,1.2s4-.4,5-1.2c1-.8,1.4-2.2,1.4-4.2v-44.5h23.9v43.2c0,9.6-2.4,16.3-7.3,20.2-4.9,3.9-12.6,5.8-23.1,5.8s-18.2-1.9-23.1-5.7c-4.9-3.8-7.3-10.4-7.3-20v-43.6h23.9Z"></path>
    <path d="M888.3,432.7v-67.9h35.6l5.4,25.9,4.4-25.9h36.6v67.9h-23.9v-35h-1.1l-6,34.3h-20l-5.9-34.3h-1.1v35h-23.9Z"></path>
    <path d="M976.5,432.7v-67.9h35.6l5.4,25.9,4.4-25.9h36.6v67.9h-23.9v-35h-1.1l-6,34.3h-20l-5.9-34.3h-1.1v35h-23.9Z"></path>
    <path d="M1064.7,432.7v-67.9h23.9v67.9h-23.9Z"></path>
    <path d="M1092.7,383.9v-19.2h51.6v19.2h-13.4v48.7h-23.9v-48.7h-14.2Z"></path>
    <path d="M1170.6,432.7v-67.9h49.8v19.2h-25.9v10.9h19.7v19.2h-19.7v18.6h-23.9Z"></path>
    <path d="M1287.8,398.7c0,12.4-2.6,21.3-7.8,26.9-5.2,5.6-13.6,8.4-25,8.4s-19.8-2.8-25.1-8.4c-5.3-5.6-7.9-14.6-7.9-26.9s2.6-21.3,7.8-26.9c5.2-5.6,13.6-8.4,25.1-8.4s19.8,2.8,25.1,8.4c5.2,5.6,7.8,14.5,7.8,26.9ZM1246.1,398.7c0,5.7.6,9.9,1.7,12.4,1.1,2.5,3.5,3.8,7.1,3.8s6-1.2,7.1-3.7c1.1-2.5,1.7-6.7,1.7-12.5s-.5-10-1.6-12.5c-1.1-2.5-3.4-3.7-7.1-3.7s-6,1.3-7.2,3.8c-1.1,2.5-1.7,6.7-1.7,12.4Z"></path>
    <path d="M1322.4,415.2h-5.9v17.5h-23.9v-67.9h29.1c10.7,0,18.3,1.7,22.9,5.2,4.6,3.5,6.9,9.9,6.9,19.4s-2.5,16.2-7.6,20.2l6.8,23.1h-24.4l-3.9-17.5ZM1322.3,396.6c3.4,0,5.1-2.2,5.1-6.6s-1.9-6.6-5.7-6.6h-5.3v13.3h5.9Z"></path>
    <path d="M1374.8,432.7l15.3-67.9h36.2l15.6,67.9h-24.1l-2-7.8h-15.8l-1.7,7.8h-23.5ZM1407,383.2l-3.9,23.7h10.2l-3.7-23.7h-2.6Z"></path>
    <path d="M1444.3,432.7v-67.9h49.8v19.2h-25.9v10.9h19.7v19.2h-19.7v18.6h-23.9Z"></path>
    <path d="M1527.9,415.2h-5.9v17.5h-23.9v-67.9h29.1c10.7,0,18.3,1.7,22.9,5.2,4.6,3.5,6.9,9.9,6.9,19.4s-2.5,16.2-7.6,20.2l6.8,23.1h-24.4l-3.9-17.5ZM1527.8,396.6c3.4,0,5.1-2.2,5.1-6.6s-1.9-6.6-5.7-6.6h-5.3v13.3h5.9Z"></path>
    <path d="M1561.8,432.7v-67.9h23.9v67.9h-23.9Z"></path>
    <path d="M1642.3,431.4c-7.3,1.8-14.8,2.6-22.4,2.6s-13.5-1.1-17.6-3.2c-4.1-2.1-7.1-5.7-8.9-10.7-1.8-5-2.7-12.2-2.7-21.6,0-13.4,2.1-22.6,6.3-27.6,4.2-5,12.3-7.4,24.2-7.4s10.8.7,17.5,2l3.6.7-.6,18.1c-5.6-.7-10.9-1-15.6-1s-7.9.9-9.2,2.7c-1.4,1.8-2.1,5.5-2.1,11.1s.3,9.5,1,11.7c.7,2.2,1.7,3.6,3.1,4.3,1.4.7,3.8,1.1,7,1.1l16.1-.6.3,17.8Z"></path>
    <path d="M1643.3,432.7l15.3-67.9h36.2l15.6,67.9h-24.1l-2-7.8h-15.8l-1.7,7.8h-23.5ZM1675.5,383.2l-3.9,23.7h10.2l-3.7-23.7h-2.6Z"></path>
    <path d="M1709.3,393.3l2.2-28.5h23.7l-7.7,28.5h-18.2Z"></path>
    <path d="M1791.4,384.4c-9.7-1-16.8-1.5-21.2-1.5s-7,.1-7.7.4c-.7.2-1.1.7-1.1,1.5s.4,1.3,1.2,1.7,3.4,1.1,7.8,2c4.4.9,7.9,1.9,10.7,2.8s5.3,2.2,7.5,3.9c2.2,1.7,3.7,3.7,4.4,6.1.7,2.4,1.1,5.6,1.1,9.7,0,8.4-2.3,14.4-6.8,17.9-4.5,3.6-11.4,5.4-20.5,5.4s-9-.3-13.9-.9c-4.8-.6-8.6-1.2-11.2-1.8l-4-.9,1-17.9c10.5,1.5,19.2,2.2,25.9,2.2s5.4-.8,5.4-2.3-.4-1.2-1.2-1.5c-.8-.3-3.1-.7-6.7-1.3-9.6-1.5-16.2-3.8-19.7-6.9-3.5-3.1-5.2-8.3-5.2-15.5s2.2-15.4,6.7-18.7c4.5-3.4,11.4-5.1,20.6-5.1s14.2.6,23,1.9l4.3.7-.6,18.2Z"></path>
  </g>
  <g>
    <path d="M791.1,636h-29.6v-67.7h28.6c11.6,0,20,2.6,25.1,7.9,5.1,5.3,7.7,13.7,7.7,25.2s-2.5,20.2-7.4,26c-4.9,5.8-13.1,8.6-24.4,8.6ZM799.2,602.6c0-6.1-.6-10.1-1.9-12.1-1.2-2-4-3-8.3-3h-4.1v29.5h4.1c3.5,0,6.1-.9,7.8-2.6,1.6-1.8,2.4-5.7,2.4-11.7Z"></path>
    <path d="M827.5,636v-67.7h50.7v18.7h-27.3v5.8h21.2v18.5h-21.2v6.1h27.3v18.7h-50.7Z"></path>
    <path d="M940.7,568.3l-13.2,67.7h-34.5l-13.7-67.7h24.8l5.3,44h1.8l4.7-44h24.8Z"></path>
    <path d="M943.4,636v-67.7h50.7v18.7h-27.3v5.8h21.2v18.5h-21.2v6.1h27.3v18.7h-50.7Z"></path>
    <path d="M1044.3,636h-45.5v-67.7h23.4v48.6h22v19.1Z"></path>
    <path d="M1110.1,602.1c0,12.3-2.6,21.3-7.7,26.8-5.1,5.6-13.3,8.3-24.5,8.3s-19.4-2.8-24.5-8.4c-5.2-5.6-7.7-14.5-7.7-26.8s2.6-21.2,7.7-26.8c5.1-5.6,13.3-8.3,24.5-8.3s19.4,2.8,24.5,8.3c5.1,5.6,7.7,14.5,7.7,26.8ZM1069.3,602.1c0,5.7.6,9.8,1.7,12.4,1.1,2.5,3.4,3.8,7,3.8s5.8-1.2,6.9-3.7c1.1-2.5,1.6-6.6,1.6-12.5s-.5-10-1.6-12.4c-1-2.5-3.4-3.7-6.9-3.7s-5.9,1.3-7,3.8c-1.1,2.5-1.7,6.7-1.7,12.4Z"></path>
    <path d="M1141.3,621.6h-3.1v14.3h-23.4v-67.7h26.6c10.7,0,18.5,1.9,23.4,5.6,4.9,3.7,7.3,10.7,7.3,20.9s-2.5,17.2-7.4,21.1c-4.9,3.9-12.7,5.8-23.3,5.8ZM1138.2,603.2h2.1c2.9,0,5-.6,6.2-1.9,1.2-1.3,1.9-3.5,1.9-6.6s-.6-5.2-1.8-6.3c-1.2-1.1-3.3-1.6-6.3-1.6h-2.1v16.4Z"></path>
    <path d="M1176.6,636v-67.7h34.8l5.3,25.9,4.3-25.9h35.9v67.7h-23.4v-34.8h-1.1l-5.9,34.1h-19.6l-5.8-34.1h-1.1v34.8h-23.4Z"></path>
    <path d="M1262.9,636v-67.7h50.7v18.7h-27.3v5.8h21.2v18.5h-21.2v6.1h27.3v18.7h-50.7Z"></path>
    <path d="M1318.4,636v-67.7h23l15.6,25.7h1.4v-25.7h23.4v67.7h-23.1l-15.4-27.6h-1.5v27.6h-23.4Z"></path>
    <path d="M1385.7,587.4v-19.1h50.5v19.1h-13.1v48.6h-23.4v-48.6h-13.9Z"></path>
  </g>
  <g>
    <path d="M761.2,537v-67.7h23.4v67.7h-23.4Z"></path>
    <path d="M790.6,537v-67.7h23l15.6,25.7h1.4v-25.7h23.4v67.7h-23.1l-15.4-27.6h-1.5v27.6h-23.4Z"></path>
    <path d="M860.1,537v-67.7h48.8v19.1h-25.4v10.9h19.3v19.1h-19.3v18.6h-23.4Z"></path>
    <path d="M941.9,519.5h-5.8v17.5h-23.4v-67.7h28.5c10.4,0,17.9,1.7,22.4,5.2,4.5,3.5,6.8,9.9,6.8,19.3s-2.5,16.1-7.5,20.1l6.7,23h-23.8l-3.8-17.5ZM941.8,501c3.3,0,4.9-2.2,4.9-6.6s-1.9-6.6-5.6-6.6h-5.2v13.2h5.8Z"></path>
    <path d="M970.9,537l14.9-67.7h35.5l15.3,67.7h-23.6l-1.9-7.8h-15.5l-1.6,7.8h-23ZM1002.4,487.7l-3.8,23.6h10l-3.6-23.6h-2.5Z"></path>
    <path d="M1090.5,488.8c-9.5-1-16.4-1.5-20.7-1.5s-6.8.1-7.5.4c-.7.2-1.1.7-1.1,1.5s.4,1.3,1.2,1.7c.8.4,3.3,1.1,7.6,2,4.3.9,7.8,1.9,10.5,2.8,2.7.9,5.2,2.2,7.4,3.8,2.2,1.7,3.6,3.7,4.3,6.1.7,2.4,1.1,5.6,1.1,9.6,0,8.3-2.2,14.3-6.7,17.9-4.4,3.6-11.1,5.4-20.1,5.4s-8.8-.3-13.6-.9c-4.7-.6-8.4-1.2-11-1.8l-3.9-.9,1-17.9c10.3,1.5,18.8,2.2,25.4,2.2s5.3-.8,5.3-2.3-.4-1.2-1.2-1.5c-.8-.3-3-.7-6.6-1.3-9.4-1.5-15.8-3.8-19.2-6.9-3.4-3.1-5.1-8.3-5.1-15.4s2.2-15.3,6.6-18.7c4.4-3.4,11.1-5,20.2-5s13.9.6,22.5,1.9l4.2.7-.6,18.2Z"></path>
    <path d="M1094.7,488.4v-19.1h50.5v19.1h-13.1v48.6h-23.4v-48.6h-13.9Z"></path>
    <path d="M1178.4,519.5h-5.8v17.5h-23.4v-67.7h28.5c10.4,0,17.9,1.7,22.4,5.2,4.5,3.5,6.8,9.9,6.8,19.3s-2.5,16.1-7.5,20.1l6.7,23h-23.8l-3.8-17.5ZM1178.3,501c3.3,0,4.9-2.2,4.9-6.6s-1.9-6.6-5.6-6.6h-5.2v13.2h5.8Z"></path>
    <path d="M1234.5,469.3v44.3c0,2,.5,3.3,1.5,4.1,1,.8,2.6,1.2,4.9,1.2s3.9-.4,4.8-1.2c.9-.8,1.4-2.2,1.4-4.1v-44.3h23.4v43c0,9.6-2.4,16.3-7.2,20.1-4.8,3.9-12.3,5.8-22.6,5.8s-17.8-1.9-22.6-5.7c-4.8-3.8-7.2-10.4-7.2-19.9v-43.4h23.4Z"></path>
    <path d="M1325.6,535.7c-7.1,1.8-14.4,2.6-21.9,2.6s-13.2-1.1-17.3-3.2c-4-2.1-7-5.7-8.7-10.7-1.8-5-2.7-12.2-2.7-21.5,0-13.4,2.1-22.6,6.2-27.5,4.1-4.9,12-7.4,23.7-7.4s10.6.7,17.2,2l3.5.7-.6,18.1c-5.5-.7-10.6-1-15.3-1s-7.7.9-9,2.7c-1.3,1.8-2,5.5-2,11.1s.3,9.5,1,11.6c.6,2.2,1.7,3.6,3.1,4.3s3.7,1.1,6.9,1.1l15.8-.6.3,17.8Z"></path>
    <path d="M1328,488.4v-19.1h50.5v19.1h-13.1v48.6h-23.4v-48.6h-13.9Z"></path>
    <path d="M1405.5,469.3v44.3c0,2,.5,3.3,1.5,4.1,1,.8,2.6,1.2,4.9,1.2s3.9-.4,4.8-1.2c.9-.8,1.4-2.2,1.4-4.1v-44.3h23.4v43c0,9.6-2.4,16.3-7.2,20.1-4.8,3.9-12.3,5.8-22.6,5.8s-17.8-1.9-22.6-5.7c-4.8-3.8-7.2-10.4-7.2-19.9v-43.4h23.4Z"></path>
    <path d="M1476.4,519.5h-5.8v17.5h-23.4v-67.7h28.5c10.4,0,17.9,1.7,22.4,5.2,4.5,3.5,6.8,9.9,6.8,19.3s-2.5,16.1-7.5,20.1l6.7,23h-23.8l-3.8-17.5ZM1476.3,501c3.3,0,4.9-2.2,4.9-6.6s-1.9-6.6-5.6-6.6h-5.2v13.2h5.8Z"></path>
    <path d="M1509.6,537v-67.7h50.7v18.7h-27.3v5.8h21.2v18.5h-21.2v6.1h27.3v18.7h-50.7Z"></path>
  </g>
</svg>
